# xmcd
#
# Track frame offsets: 
#        150
#        20292
#        38886
#        59962
#        78463
#        106500
#        120795
#        162841
#        189170
#
# Disc length: 2856 seconds
#
# Revision: 0
# Processed by: cddbd v1.5.2PL0 Copyright (c) Steve Scherf et al.
# Submitted via: ExactAudioCopy v0.99pb5
#
DISCID=620b2609
DTITLE=Live At ZDB - The Legendary Tigerman
DYEAR=2013
DGENRE=Metrodiscos
TTITLE0=Walking Downtown 
TTITLE1=I'll Make You Mine
TTITLE2=Naked Blues 
TTITLE3=& Then Came The Pain
TTITLE4=Mississipi River Blues
TTITLE5=Mississipi River Blues
TTITLE6=Big Black Boat
TTITLE7=No More My Lord 
TTITLE8=Fuck Christmas Baby, I Got The Blues
EXTD=
EXTT0=
EXTT1=
EXTT2=
EXTT3=
EXTT4=
EXTT5=
EXTT6=
EXTT7=
EXTT8=
PLAYORDER=
